# xmcd CD database file
#
# Track frame offsets:
#	150
#	26107
#	55437
#	80660
#	108715
#	135715
#	164942
#	196575
#	216612
#	261240
#
# Disc length: 3864 seconds
#
# Revision: 0
# Processed by: cddbd v1.5.2PL0 Copyright (c) Steve Scherf et al.
# Submitted via: CDex 1.51
#
DISCID=a10f160a
DTITLE=George Mraz - My Foolish Heart
DYEAR=1995
DGENRE=Jazz
TTITLE0=Alice In Wonderland
TTITLE1=Sunday's Song
TTITLE2=Picturesque
TTITLE3=Passion Flower
TTITLE4=Icicles
TTITLE5=Ask Me Now
TTITLE6=Blue In Green
TTITLE7=Robo Bop
TTITLE8=My Foolish Heart
TTITLE9=Haunted Heart
EXTD=YEAR: 1995
EXTT0=
EXTT1=
EXTT2=
EXTT3=
EXTT4=
EXTT5=
EXTT6=
EXTT7=
EXTT8=
EXTT9=
PLAYORDER=
